<svg 
 xmlns="http://www.w3.org/2000/svg"
 xmlns:xlink="http://www.w3.org/1999/xlink"
 width="28.822cm" height="28.963cm">
<path fill-rule="evenodd"  fill="current"
 d="M683.999,820.373 L564.999,820.373 C491.546,820.373 431.999,760.827 431.999,687.373 L431.999,542.196 C431.999,468.742 491.546,409.196 564.999,409.196 L683.999,409.196 C757.453,409.196 816.999,468.742 816.999,542.196 L816.999,687.373 C816.999,760.827 757.453,820.373 683.999,820.373 ZM683.999,372.409 L564.999,372.409 C491.546,372.409 431.999,312.863 431.999,239.409 L431.999,133.518 C431.999,60.64 491.546,0.518 564.999,0.518 L683.999,0.518 C757.453,0.518 816.999,60.64 816.999,133.518 L816.999,239.409 C816.999,312.863 757.453,372.409 683.999,372.409 ZM252.0,814.0 L133.0,814.0 C59.546,814.0 0.0,754.453 0.0,680.999 L0.0,136.999 C0.0,63.546 59.546,3.999 133.0,3.999 L252.0,3.999 C325.453,3.999 385.0,63.546 385.0,136.999 L385.0,680.999 C385.0,754.453 325.453,814.0 252.0,814.0 Z"/>
</svg>